<mxfile host="app.diagrams.net" modified="2023-01-10T16:00:58.466Z" agent="5.0 (Windows NT 10.0; Win64; x64) AppleWebKit/537.36 (KHTML, like Gecko) Chrome/108.0.0.0 Safari/537.36" etag="_Dqh0hDsq9IQjJ9hblAN" version="20.8.3" type="github">
  <diagram id="vAQ-pWiYrc2p5PSBO3YX" name="Page-1">
    <mxGraphModel dx="2524" dy="1888" grid="1" gridSize="10" guides="1" tooltips="1" connect="1" arrows="1" fold="1" page="1" pageScale="1" pageWidth="850" pageHeight="1100" math="0" shadow="0">
      <root>
        <mxCell id="0" />
        <mxCell id="1" parent="0" />
        <mxCell id="NmMnY57Rv5nZxF6gJRle-12" style="edgeStyle=orthogonalEdgeStyle;rounded=0;orthogonalLoop=1;jettySize=auto;html=1;exitX=0;exitY=0;exitDx=85;exitDy=99;exitPerimeter=0;entryX=0.447;entryY=0.022;entryDx=0;entryDy=0;entryPerimeter=0;" edge="1" parent="1" source="NmMnY57Rv5nZxF6gJRle-1" target="NmMnY57Rv5nZxF6gJRle-8">
          <mxGeometry relative="1" as="geometry" />
        </mxCell>
        <mxCell id="NmMnY57Rv5nZxF6gJRle-19" style="edgeStyle=orthogonalEdgeStyle;rounded=0;orthogonalLoop=1;jettySize=auto;html=1;exitX=0;exitY=0;exitDx=0;exitDy=44.5;exitPerimeter=0;entryX=0.5;entryY=0;entryDx=0;entryDy=0;" edge="1" parent="1" source="NmMnY57Rv5nZxF6gJRle-1" target="NmMnY57Rv5nZxF6gJRle-18">
          <mxGeometry relative="1" as="geometry" />
        </mxCell>
        <mxCell id="NmMnY57Rv5nZxF6gJRle-25" style="edgeStyle=orthogonalEdgeStyle;rounded=0;orthogonalLoop=1;jettySize=auto;html=1;exitX=0;exitY=0;exitDx=75;exitDy=0;exitPerimeter=0;entryX=0.5;entryY=1;entryDx=0;entryDy=0;" edge="1" parent="1" source="NmMnY57Rv5nZxF6gJRle-1" target="NmMnY57Rv5nZxF6gJRle-23">
          <mxGeometry relative="1" as="geometry" />
        </mxCell>
        <mxCell id="NmMnY57Rv5nZxF6gJRle-1" value="Vendor &lt;br&gt;(Owner -- Sera)" style="html=1;dashed=0;whitespace=wrap;shape=mxgraph.dfd.externalEntity;shadow=0;glass=0;comic=0;labelBackgroundColor=none;strokeWidth=3;fillColor=none;fontColor=#000000;labelBorderColor=none;align=center;fontStyle=1;snapToPoint=1;" vertex="1" parent="1">
          <mxGeometry x="150" y="241" width="160" height="99" as="geometry" />
        </mxCell>
        <mxCell id="NmMnY57Rv5nZxF6gJRle-34" style="edgeStyle=orthogonalEdgeStyle;rounded=0;orthogonalLoop=1;jettySize=auto;html=1;exitX=0;exitY=0;exitDx=160;exitDy=54.5;exitPerimeter=0;entryX=0;entryY=0.5;entryDx=0;entryDy=0;" edge="1" parent="1" source="NmMnY57Rv5nZxF6gJRle-2" target="NmMnY57Rv5nZxF6gJRle-30">
          <mxGeometry relative="1" as="geometry" />
        </mxCell>
        <mxCell id="NmMnY57Rv5nZxF6gJRle-2" value="Product Records" style="html=1;dashed=0;whitespace=wrap;shape=mxgraph.dfd.externalEntity;shadow=0;glass=0;comic=0;labelBackgroundColor=none;strokeWidth=3;fillColor=none;fontColor=#000000;labelBorderColor=none;align=center;fontStyle=1;snapToPoint=1;" vertex="1" parent="1">
          <mxGeometry x="395" y="100" width="160" height="99" as="geometry" />
        </mxCell>
        <mxCell id="NmMnY57Rv5nZxF6gJRle-3" value="Customer&lt;br&gt;(Agents)" style="html=1;dashed=0;whitespace=wrap;shape=mxgraph.dfd.externalEntity;shadow=0;glass=0;comic=0;labelBackgroundColor=none;strokeWidth=3;fillColor=none;fontColor=#000000;labelBorderColor=none;align=center;fontStyle=1;snapToPoint=1;" vertex="1" parent="1">
          <mxGeometry x="670" y="430" width="160" height="99" as="geometry" />
        </mxCell>
        <mxCell id="NmMnY57Rv5nZxF6gJRle-14" style="edgeStyle=orthogonalEdgeStyle;rounded=0;orthogonalLoop=1;jettySize=auto;html=1;exitX=0.5;exitY=1;exitDx=0;exitDy=0;entryX=0.62;entryY=-0.1;entryDx=0;entryDy=0;entryPerimeter=0;" edge="1" parent="1" source="NmMnY57Rv5nZxF6gJRle-8" target="NmMnY57Rv5nZxF6gJRle-9">
          <mxGeometry relative="1" as="geometry" />
        </mxCell>
        <mxCell id="NmMnY57Rv5nZxF6gJRle-8" value="Collection of Vendor Information" style="rounded=1;whiteSpace=wrap;shadow=0;glass=0;comic=0;labelBackgroundColor=none;strokeWidth=3;fillColor=none;fontColor=#000000;fontStyle=1;snapToPoint=1;" vertex="1" parent="1">
          <mxGeometry x="168" y="409.99999999999994" width="150" height="89" as="geometry" />
        </mxCell>
        <mxCell id="NmMnY57Rv5nZxF6gJRle-16" style="edgeStyle=orthogonalEdgeStyle;rounded=0;orthogonalLoop=1;jettySize=auto;html=1;exitX=1;exitY=0.5;exitDx=0;exitDy=0;entryX=0.5;entryY=1;entryDx=0;entryDy=0;" edge="1" parent="1" source="NmMnY57Rv5nZxF6gJRle-9" target="NmMnY57Rv5nZxF6gJRle-15">
          <mxGeometry relative="1" as="geometry" />
        </mxCell>
        <mxCell id="NmMnY57Rv5nZxF6gJRle-9" value="&lt;span style=&quot;white-space: pre;&quot;&gt;	&lt;/span&gt;Vendor Information" style="html=1;dashed=0;whitespace=wrap;shape=mxgraph.dfd.dataStoreID;align=left;spacingLeft=3;points=[[0,0],[0.5,0],[1,0],[0,0.5],[1,0.5],[0,1],[0.5,1],[1,1]];" vertex="1" parent="1">
          <mxGeometry x="157" y="570" width="139" height="30" as="geometry" />
        </mxCell>
        <mxCell id="NmMnY57Rv5nZxF6gJRle-13" value="Vendor Information &lt;br&gt;(Name, Contact, Address)" style="text;html=1;align=center;verticalAlign=middle;resizable=0;points=[];autosize=1;strokeColor=none;fillColor=none;" vertex="1" parent="1">
          <mxGeometry x="240" y="360" width="160" height="40" as="geometry" />
        </mxCell>
        <mxCell id="NmMnY57Rv5nZxF6gJRle-53" style="edgeStyle=orthogonalEdgeStyle;rounded=0;orthogonalLoop=1;jettySize=auto;html=1;exitX=1;exitY=0.75;exitDx=0;exitDy=0;entryX=0;entryY=0;entryDx=37.5;entryDy=0;entryPerimeter=0;" edge="1" parent="1" source="NmMnY57Rv5nZxF6gJRle-15" target="NmMnY57Rv5nZxF6gJRle-3">
          <mxGeometry relative="1" as="geometry" />
        </mxCell>
        <mxCell id="NmMnY57Rv5nZxF6gJRle-55" style="edgeStyle=orthogonalEdgeStyle;rounded=0;orthogonalLoop=1;jettySize=auto;html=1;exitX=1;exitY=1;exitDx=0;exitDy=0;entryX=0;entryY=0.606;entryDx=0;entryDy=0;entryPerimeter=0;" edge="1" parent="1" source="NmMnY57Rv5nZxF6gJRle-15" target="NmMnY57Rv5nZxF6gJRle-3">
          <mxGeometry relative="1" as="geometry" />
        </mxCell>
        <mxCell id="NmMnY57Rv5nZxF6gJRle-57" style="edgeStyle=orthogonalEdgeStyle;rounded=0;orthogonalLoop=1;jettySize=auto;html=1;exitX=1;exitY=0.5;exitDx=0;exitDy=0;entryX=0;entryY=0;entryDx=150;entryDy=0;entryPerimeter=0;" edge="1" parent="1" source="NmMnY57Rv5nZxF6gJRle-15" target="NmMnY57Rv5nZxF6gJRle-3">
          <mxGeometry relative="1" as="geometry" />
        </mxCell>
        <mxCell id="NmMnY57Rv5nZxF6gJRle-15" value="Upload to database" style="rounded=1;whiteSpace=wrap;shadow=0;glass=0;comic=0;labelBackgroundColor=none;strokeWidth=3;fillColor=none;fontColor=#000000;fontStyle=1;snapToPoint=1;" vertex="1" parent="1">
          <mxGeometry x="400" y="261" width="150" height="89" as="geometry" />
        </mxCell>
        <mxCell id="NmMnY57Rv5nZxF6gJRle-21" style="edgeStyle=orthogonalEdgeStyle;rounded=0;orthogonalLoop=1;jettySize=auto;html=1;exitX=0.5;exitY=1;exitDx=0;exitDy=0;entryX=0.5;entryY=0;entryDx=0;entryDy=0;" edge="1" parent="1" source="NmMnY57Rv5nZxF6gJRle-18" target="NmMnY57Rv5nZxF6gJRle-20">
          <mxGeometry relative="1" as="geometry" />
        </mxCell>
        <mxCell id="NmMnY57Rv5nZxF6gJRle-18" value="Collection of Received Invoices" style="rounded=1;whiteSpace=wrap;shadow=0;glass=0;comic=0;labelBackgroundColor=none;strokeWidth=3;fillColor=none;fontColor=#000000;fontStyle=1;snapToPoint=1;" vertex="1" parent="1">
          <mxGeometry x="-10" y="409.99999999999994" width="150" height="89" as="geometry" />
        </mxCell>
        <mxCell id="NmMnY57Rv5nZxF6gJRle-36" style="edgeStyle=orthogonalEdgeStyle;rounded=0;orthogonalLoop=1;jettySize=auto;html=1;exitX=0.5;exitY=1;exitDx=0;exitDy=0;entryX=0.75;entryY=1;entryDx=0;entryDy=0;" edge="1" parent="1" source="NmMnY57Rv5nZxF6gJRle-20" target="NmMnY57Rv5nZxF6gJRle-15">
          <mxGeometry relative="1" as="geometry" />
        </mxCell>
        <mxCell id="NmMnY57Rv5nZxF6gJRle-20" value="&lt;span style=&quot;white-space: pre;&quot;&gt;	&lt;/span&gt;Received Invoices" style="html=1;dashed=0;whitespace=wrap;shape=mxgraph.dfd.dataStoreID;align=left;spacingLeft=3;points=[[0,0],[0.5,0],[1,0],[0,0.5],[1,0.5],[0,1],[0.5,1],[1,1]];" vertex="1" parent="1">
          <mxGeometry x="-4.5" y="570" width="139" height="30" as="geometry" />
        </mxCell>
        <mxCell id="NmMnY57Rv5nZxF6gJRle-29" style="edgeStyle=orthogonalEdgeStyle;rounded=0;orthogonalLoop=1;jettySize=auto;html=1;exitX=0.5;exitY=0;exitDx=0;exitDy=0;entryX=0;entryY=0.5;entryDx=0;entryDy=0;" edge="1" parent="1" source="NmMnY57Rv5nZxF6gJRle-23" target="NmMnY57Rv5nZxF6gJRle-24">
          <mxGeometry relative="1" as="geometry" />
        </mxCell>
        <mxCell id="NmMnY57Rv5nZxF6gJRle-23" value="Collection of Payments" style="rounded=1;whiteSpace=wrap;shadow=0;glass=0;comic=0;labelBackgroundColor=none;strokeWidth=3;fillColor=none;fontColor=#000000;fontStyle=1;snapToPoint=1;" vertex="1" parent="1">
          <mxGeometry x="150.5" y="72.99999999999994" width="150" height="89" as="geometry" />
        </mxCell>
        <mxCell id="NmMnY57Rv5nZxF6gJRle-31" style="edgeStyle=orthogonalEdgeStyle;rounded=0;orthogonalLoop=1;jettySize=auto;html=1;exitX=1;exitY=0.5;exitDx=0;exitDy=0;entryX=0.5;entryY=0;entryDx=0;entryDy=0;" edge="1" parent="1" source="NmMnY57Rv5nZxF6gJRle-24" target="NmMnY57Rv5nZxF6gJRle-30">
          <mxGeometry relative="1" as="geometry" />
        </mxCell>
        <mxCell id="NmMnY57Rv5nZxF6gJRle-24" value="&lt;span style=&quot;white-space: pre;&quot;&gt;	&lt;/span&gt;Payments" style="html=1;dashed=0;whitespace=wrap;shape=mxgraph.dfd.dataStoreID;align=left;spacingLeft=3;points=[[0,0],[0.5,0],[1,0],[0,0.5],[1,0.5],[0,1],[0.5,1],[1,1]];" vertex="1" parent="1">
          <mxGeometry x="370" y="-40" width="139" height="30" as="geometry" />
        </mxCell>
        <mxCell id="NmMnY57Rv5nZxF6gJRle-26" value="Received Invoices" style="text;html=1;align=center;verticalAlign=middle;resizable=0;points=[];autosize=1;strokeColor=none;fillColor=none;" vertex="1" parent="1">
          <mxGeometry x="60" y="350" width="120" height="30" as="geometry" />
        </mxCell>
        <mxCell id="NmMnY57Rv5nZxF6gJRle-28" value="Payments" style="text;html=1;align=center;verticalAlign=middle;resizable=0;points=[];autosize=1;strokeColor=none;fillColor=none;" vertex="1" parent="1">
          <mxGeometry x="140" y="190" width="80" height="30" as="geometry" />
        </mxCell>
        <mxCell id="NmMnY57Rv5nZxF6gJRle-33" style="edgeStyle=orthogonalEdgeStyle;rounded=0;orthogonalLoop=1;jettySize=auto;html=1;exitX=0.5;exitY=1;exitDx=0;exitDy=0;entryX=0.5;entryY=0;entryDx=0;entryDy=0;" edge="1" parent="1" source="NmMnY57Rv5nZxF6gJRle-30" target="NmMnY57Rv5nZxF6gJRle-32">
          <mxGeometry relative="1" as="geometry" />
        </mxCell>
        <mxCell id="NmMnY57Rv5nZxF6gJRle-30" value="Update product list" style="rounded=1;whiteSpace=wrap;shadow=0;glass=0;comic=0;labelBackgroundColor=none;strokeWidth=3;fillColor=none;fontColor=#000000;fontStyle=1;snapToPoint=1;" vertex="1" parent="1">
          <mxGeometry x="595" y="-99.00000000000006" width="150" height="89" as="geometry" />
        </mxCell>
        <mxCell id="NmMnY57Rv5nZxF6gJRle-35" style="edgeStyle=orthogonalEdgeStyle;rounded=0;orthogonalLoop=1;jettySize=auto;html=1;exitX=0.5;exitY=1;exitDx=0;exitDy=0;entryX=1;entryY=0.25;entryDx=0;entryDy=0;" edge="1" parent="1" source="NmMnY57Rv5nZxF6gJRle-32" target="NmMnY57Rv5nZxF6gJRle-15">
          <mxGeometry relative="1" as="geometry" />
        </mxCell>
        <mxCell id="NmMnY57Rv5nZxF6gJRle-32" value="&lt;span style=&quot;white-space: pre;&quot;&gt;	&lt;/span&gt;Product List" style="html=1;dashed=0;whitespace=wrap;shape=mxgraph.dfd.dataStoreID;align=left;spacingLeft=3;points=[[0,0],[0.5,0],[1,0],[0,0.5],[1,0.5],[0,1],[0.5,1],[1,1]];" vertex="1" parent="1">
          <mxGeometry x="600.5" y="30" width="139" height="30" as="geometry" />
        </mxCell>
        <mxCell id="NmMnY57Rv5nZxF6gJRle-38" value="Product Information" style="text;html=1;align=center;verticalAlign=middle;resizable=0;points=[];autosize=1;strokeColor=none;fillColor=none;" vertex="1" parent="1">
          <mxGeometry x="440" y="50" width="130" height="30" as="geometry" />
        </mxCell>
        <mxCell id="NmMnY57Rv5nZxF6gJRle-39" value="Payments tied to vendor" style="text;html=1;align=center;verticalAlign=middle;resizable=0;points=[];autosize=1;strokeColor=none;fillColor=none;" vertex="1" parent="1">
          <mxGeometry x="80" y="20" width="150" height="30" as="geometry" />
        </mxCell>
        <mxCell id="NmMnY57Rv5nZxF6gJRle-47" value="" style="endArrow=classic;html=1;rounded=0;entryX=0;entryY=0.5;entryDx=0;entryDy=0;" edge="1" parent="1" target="NmMnY57Rv5nZxF6gJRle-15">
          <mxGeometry width="50" height="50" relative="1" as="geometry">
            <mxPoint x="225" y="210" as="sourcePoint" />
            <mxPoint x="395" y="305.5" as="targetPoint" />
            <Array as="points">
              <mxPoint x="345" y="210" />
              <mxPoint x="345" y="306" />
            </Array>
          </mxGeometry>
        </mxCell>
        <mxCell id="NmMnY57Rv5nZxF6gJRle-48" value="Payments tied to products" style="text;html=1;align=center;verticalAlign=middle;resizable=0;points=[];autosize=1;strokeColor=none;fillColor=none;" vertex="1" parent="1">
          <mxGeometry x="390" y="-90" width="160" height="30" as="geometry" />
        </mxCell>
        <mxCell id="NmMnY57Rv5nZxF6gJRle-49" value="Update stock" style="text;html=1;align=center;verticalAlign=middle;resizable=0;points=[];autosize=1;strokeColor=none;fillColor=none;" vertex="1" parent="1">
          <mxGeometry x="705" width="90" height="30" as="geometry" />
        </mxCell>
        <mxCell id="NmMnY57Rv5nZxF6gJRle-50" value="Updated stock" style="text;html=1;align=center;verticalAlign=middle;resizable=0;points=[];autosize=1;strokeColor=none;fillColor=none;" vertex="1" parent="1">
          <mxGeometry x="665" y="100" width="100" height="30" as="geometry" />
        </mxCell>
        <mxCell id="NmMnY57Rv5nZxF6gJRle-51" value="Invoices tied to vendor" style="text;html=1;align=center;verticalAlign=middle;resizable=0;points=[];autosize=1;strokeColor=none;fillColor=none;" vertex="1" parent="1">
          <mxGeometry x="60" y="620" width="140" height="30" as="geometry" />
        </mxCell>
        <mxCell id="NmMnY57Rv5nZxF6gJRle-52" value="Vendor information with &lt;br&gt;their tied unique IDs" style="text;html=1;align=center;verticalAlign=middle;resizable=0;points=[];autosize=1;strokeColor=none;fillColor=none;" vertex="1" parent="1">
          <mxGeometry x="303" y="535" width="150" height="40" as="geometry" />
        </mxCell>
        <mxCell id="NmMnY57Rv5nZxF6gJRle-54" value="Invoices" style="text;html=1;align=center;verticalAlign=middle;resizable=0;points=[];autosize=1;strokeColor=none;fillColor=none;" vertex="1" parent="1">
          <mxGeometry x="705" y="330" width="70" height="30" as="geometry" />
        </mxCell>
        <mxCell id="NmMnY57Rv5nZxF6gJRle-56" value="Order Requests" style="text;html=1;align=center;verticalAlign=middle;resizable=0;points=[];autosize=1;strokeColor=none;fillColor=none;" vertex="1" parent="1">
          <mxGeometry x="550" y="410" width="110" height="30" as="geometry" />
        </mxCell>
        <mxCell id="NmMnY57Rv5nZxF6gJRle-58" value="Payments" style="text;html=1;align=center;verticalAlign=middle;resizable=0;points=[];autosize=1;strokeColor=none;fillColor=none;" vertex="1" parent="1">
          <mxGeometry x="720" y="275" width="80" height="30" as="geometry" />
        </mxCell>
      </root>
    </mxGraphModel>
  </diagram>
</mxfile>
